<svg xmlns="http://www.w3.org/2000/svg" viewBox="0 0 364.26 376.49"><defs><style>.cls-1{fill:#333;}.cls-2{fill:#fff;stroke:#000;stroke-miterlimit:10;stroke-width:0.75px;}</style></defs><title>Bottom layer</title><g id="Layer_2" data-name="Layer 2"><g id="Layer_2-2" data-name="Layer 2"><g id="Bottom_layer" data-name="Bottom layer"><path id="Hair" d="M74.92,343s-20,4.72-31.95-19.8c0,0-20,11.93-35.77-11.25,4.05,0,24.3,2.25,20.92-21.6-2.47-1.57-38.69-26.1-6.75-55.12C23.62,225.53,3.82,224.63,0,199.88c0-12.37,25-32.62,21.15-35.32,2.7-6.52-5.18-16.2-8.1-35.55S41,97.51,41.62,90.09c6.53-2.7,8.1-32.4,17.55-41.17s23.4-17.33,51.3-23.4S139.72,4.82,174.82.77s51.75,8.77,58.72,18.9c0,0,17.1-4.5,32.85.22s23.4,22.73,25.2,34,5.62,19.89,23.85,27.83,22.05,8.61,17.77,34.26-3.82,27.45,9.45,38.25,7.2,25.88-1.8,31-10.57,28.8,3.83,33.52,14.62,13.05,15.3,19.58c0,14.4-16.43,18-18.23,32.4,0,0,.45,21.15,22.5,15.75,0,10.57-9.45,19.35-32.85,16.87.23,7.88-13.05,31.95-45.67,20.93,0,0-25.46,17.42-65.07.49,0,0-8.16,29.63-42.62,12.7s-33.55,12.69-60.46-.31C118.2,343.35,101.69,354.39,74.92,343Z"/><path id="Shirt" class="cls-1" d="M108.74,243.85s-19.39,6.46-27.47,21.65-10.66,17.12-12,43.29v6.47l50.72-1v31l4.2,4.85,161.55-1.94V271.64s4.21-26.5-33.92-27.79S108.74,243.85,108.74,243.85Z"/><path id="Left_Hand" data-name="Left Hand" class="cls-2" d="M69.64,314.29H120s-2.26,22,15.84,22.61,61.71,4.85,77.54,11.64,11.63,24.23-3.55,25.2-68.18,1.94-68.18,1.94S97.83,380.8,82.89,356C70.49,335.37,70.93,326.89,69.64,314.29Z"/></g></g></g></svg>