<svg xmlns="http://www.w3.org/2000/svg" viewBox="0 0 251.4 257.9"><defs><style>.cls-1{fill:#fff;stroke-width:0.75px;}.cls-1,.cls-2{stroke:#000;stroke-miterlimit:10;}.cls-2{fill:none;stroke-width:4px;}.cls-3{fill:#4d4d4d;}</style></defs><title>Top layer</title><g id="Layer_2" data-name="Layer 2"><g id="Layer_2-2" data-name="Layer 2"><g id="Top_layer" data-name="Top layer"><path id="Face" class="cls-1" d="M227.32,134.26l-.17,1.08c-.72-65.87-46.17-119-102.15-119-56.42,0-102.16,54-102.16,120.6q0,5.42.41,10.71l-2.79.85c-18.67,5.3-22,18.67-19.22,27.86,10.84,25.48,29.23,16.93,32.61,15.08,16.86,39.22,51.34,66.1,91.15,66.1,44,0,81.47-32.8,95.87-78.82,2.63,1,23.27,7.68,30-20.12C252.09,149.05,246.6,136.41,227.32,134.26Z"/><g id="Eyebrow"><path id="left_eyebrow" data-name="left eyebrow" d="M71.44,107.53,96,98.62s16.15.56,7.24,13.09c-12.82,4.18-24.24,5.85-38.72,12-10.31,3.62-13.93,5-13.93,5s-9.48-1.68-3.62-10.87A212.79,212.79,0,0,1,71.44,107.53Z"/><path id="right_eyebrow" data-name="right eyebrow" d="M170.91,100.69l-25.4-5.93s-16,2.47-5.63,13.86c13.22,2.62,24.76,2.92,39.87,7.29,10.66,2.37,14.43,3.32,14.43,3.32s9.2-2.79,2.3-11.22A212.86,212.86,0,0,0,170.91,100.69Z"/></g><path id="Fringe" d="M20.26,140.52v19.12s38.23-5.32,54.19-61.08S113.26,45.75,134,72.15c13.6-13.79,24.43-22.46,45.52,29s48.27,40.61,49.85,43.36.7-26.64.7-26.64L218,50.42,125.26,0,22.84,48.19Z"/><path id="Glasses" d="M178.67,103.52a45.15,45.15,0,0,0-44.76,39.3c-3.07-2.21-10.76-6.21-19.33.71a45.15,45.15,0,1,0,1.88,12.9c0-1.09,0-2.17-.13-3.25,2.72-3.56,9.4-9.89,17.41-.17a45.14,45.14,0,1,0,44.93-49.49ZM71.32,193.81a37.38,37.38,0,1,1,37.37-37.38A37.38,37.38,0,0,1,71.32,193.81ZM178.67,186A37.38,37.38,0,1,1,216,148.66,37.37,37.37,0,0,1,178.67,186Z"/><g id="Eyes"><path class="cls-2" d="M57,155.34s2.52-18.07,25.25-18.65,22.53,18.65,22.53,18.65"/><path class="cls-2" d="M144.88,150.91s2.42-22,24.16-20.4S192.4,146,192.4,146"/></g><path id="Beard" d="M205.71,210.86a80.33,80.33,0,0,0-8.07,3.65c-14.49,5.29-16.44-3.9-25.35-14.21s-24-10.36-24-10.36l-21.17.05s-28.42-1.39-37.61,10.59-10.31,20.89-18.11,22.84c-6.26,1.57-16.28-1.53-20-2.82C70,243.36,96.11,257.52,125,257.52,157.82,257.52,187,239.25,205.71,210.86ZM99.3,217s-6.41-12.54,8.91-15.05c3.35-1.39,9.2-2.75,19.78-3.06,0,0,21.17-1.39,26.47,1.67s11.14,7.24,0,19.78S126.6,231,126.6,231,108.77,229.55,99.3,217Z"/><path id="Mouth" class="cls-3" d="M110.16,213.39s3.9,19,19.78,17,17.83-13.37,17.83-19.78-2-8.92-6.13-8.92-26.46,1.68-26.46,1.68S109.47,203.64,110.16,213.39Z"/></g></g></g></svg>